<svg width="145" height="18" viewBox="0 0 145 18" fill="none" xmlns="http://www.w3.org/2000/svg">
<path d="M42.0033 5.05024V12.6074H43.8429C44.3124 12.6003 44.7757 12.4967 45.2055 12.303C45.6352 12.1092 46.0226 11.8292 46.3449 11.4793C47.0062 10.7622 47.368 9.80893 47.3533 8.82257C47.3673 8.33264 47.2867 7.84471 47.1161 7.38679C46.9454 6.92888 46.6881 6.51002 46.3589 6.15427C46.0354 5.80397 45.6452 5.52522 45.2125 5.33518C44.7798 5.14515 44.3137 5.04785 43.8429 5.04928H42.0043L42.0033 5.05024ZM43.8429 2.68077C47.2717 2.68077 49.8656 5.40192 49.8656 8.82257C49.8656 12.2432 47.2717 14.9798 43.8429 14.9798H39.7856C39.747 14.9793 39.7087 14.9709 39.6732 14.9553C39.6376 14.9397 39.6054 14.917 39.5784 14.8887C39.5514 14.8603 39.5302 14.8268 39.5158 14.79C39.5015 14.7532 39.4943 14.7138 39.4948 14.6742V2.99881C39.4948 2.8297 39.6252 2.6923 39.7856 2.6923L43.8429 2.68077ZM58.7034 12.8707C60.2607 12.8755 61.6669 11.8944 62.2663 10.3849C62.56 9.6474 62.6385 8.83846 62.4923 8.05616C62.3461 7.27387 61.9815 6.5518 61.4427 5.97747C60.9133 5.41258 60.2291 5.02547 59.4804 4.86729C58.7317 4.70912 57.9538 4.78732 57.2494 5.09156C55.8103 5.7142 54.8703 7.18719 54.8675 8.82257C54.8675 11.0518 56.5814 12.8601 58.7034 12.8707ZM58.7044 2.40212C62.3132 2.40212 65.0722 5.31544 65.0722 8.82257C65.0722 12.3297 62.3132 15.243 58.7034 15.243C55.0945 15.243 52.359 12.3441 52.359 8.82257C52.359 5.30103 55.1189 2.40212 58.7044 2.40212ZM73.8388 12.8707C75.9617 12.8649 77.6794 11.0546 77.6775 8.82546C77.6747 6.59434 75.9533 4.78793 73.8313 4.78697C71.7074 4.78697 69.9851 6.59242 69.9822 8.82257C69.9822 9.89681 70.3884 10.9269 71.1117 11.6859C71.4657 12.06 71.8894 12.3576 72.3576 12.5611C72.8259 12.7646 73.3301 12.8699 73.8388 12.8707ZM73.8378 2.40212C77.4355 2.40212 80.1944 5.30103 80.1944 8.82257C80.1944 12.3441 77.4242 15.243 73.8378 15.243C70.2524 15.243 67.47 12.3441 67.47 8.82257C67.47 5.30103 70.229 2.40212 73.8378 2.40212ZM88.6092 5.05024H86.0154V8.30275H88.6092C88.8142 8.31205 89.0188 8.27823 89.2105 8.20337C89.4021 8.1285 89.5768 8.01419 89.7237 7.86748C90.0239 7.56961 90.1946 7.15644 90.1984 6.72214C90.2059 6.5018 90.1699 6.28217 90.0926 6.07644C90.0152 5.8707 89.898 5.6831 89.7481 5.52491C89.6009 5.36922 89.4235 5.24682 89.2274 5.16557C89.0312 5.08431 88.8207 5.04601 88.6092 5.05313V5.05024ZM83.5059 2.99881C83.5059 2.8297 83.6373 2.6923 83.7977 2.6923H88.6814C91.0098 2.6923 92.6946 4.4843 92.6946 6.73463C92.7125 8.25663 91.901 9.65468 90.6055 10.3359L92.8579 14.5185C92.889 14.5666 92.9066 14.6226 92.9086 14.6803C92.9106 14.7379 92.8969 14.795 92.8691 14.8452C92.842 14.8947 92.8016 14.935 92.7527 14.9616C92.7038 14.9882 92.6485 14.9998 92.5933 14.9951H90.6168C90.5619 14.9959 90.508 14.9808 90.4612 14.9516C90.4144 14.9223 90.3766 14.8801 90.3522 14.8299L88.1814 10.6905H86.006V14.6646C86.0066 14.7043 85.9996 14.7437 85.9853 14.7806C85.971 14.8176 85.9497 14.8512 85.9227 14.8797C85.8957 14.9082 85.8634 14.9309 85.8278 14.9466C85.7922 14.9623 85.7539 14.9706 85.7152 14.9711H83.8108C83.772 14.9706 83.7338 14.9623 83.6982 14.9466C83.6625 14.9309 83.6303 14.9082 83.6033 14.8797C83.5763 14.8512 83.555 14.8176 83.5407 14.7806C83.5264 14.7437 83.5194 14.7043 83.52 14.6646L83.5069 2.99977L83.5059 2.99881ZM99.2351 5.10789V12.666H101.074C101.543 12.6595 102.006 12.5566 102.436 12.3635C102.866 12.1705 103.254 11.891 103.577 11.5418C104.238 10.8255 104.601 9.87294 104.587 8.88695C104.602 8.39642 104.522 7.9077 104.352 7.44892C104.182 6.99015 103.925 6.5704 103.595 6.21384C103.271 5.86295 102.88 5.58386 102.447 5.3938C102.013 5.20375 101.546 5.10677 101.075 5.10886L99.2351 5.10789ZM101.074 2.73554C104.503 2.73554 107.096 5.45957 107.096 8.88695C107.096 12.3143 104.503 15.0384 101.074 15.0384H97.0287C96.9899 15.0379 96.9516 15.0295 96.916 15.0138C96.8804 14.9982 96.8482 14.9754 96.8212 14.9469C96.7941 14.9185 96.7729 14.8848 96.7586 14.8479C96.7443 14.811 96.7373 14.7716 96.7379 14.7319V3.05742C96.7379 2.88735 96.8683 2.74995 97.0287 2.74995L101.074 2.73554ZM114.748 5.7411L113.324 9.78247H116.168L114.748 5.7411ZM112.49 12.0664L111.558 14.7568C111.539 14.8201 111.501 14.8753 111.448 14.9135C111.395 14.9518 111.332 14.9711 111.267 14.9682H109.247C109.195 14.9731 109.143 14.9638 109.097 14.9411C109.05 14.9185 109.01 14.8834 108.981 14.8395C108.952 14.7951 108.934 14.7436 108.929 14.6901C108.925 14.6366 108.934 14.5828 108.956 14.5339L113.322 2.87006C113.342 2.80855 113.381 2.75554 113.434 2.71911C113.486 2.68269 113.549 2.66483 113.612 2.66828H115.873C115.937 2.66462 116 2.68237 116.052 2.71881C116.105 2.75526 116.145 2.80838 116.165 2.87006L120.531 14.5339C120.553 14.5829 120.562 14.6367 120.557 14.6902C120.552 14.7437 120.534 14.7952 120.505 14.8395C120.476 14.8832 120.436 14.9181 120.389 14.9406C120.342 14.9631 120.291 14.9723 120.239 14.9673H118.219C118.155 14.9701 118.091 14.9509 118.039 14.9126C117.986 14.8743 117.947 14.8192 117.929 14.7559L116.997 12.0655H112.49V12.0664ZM122.873 6.00341C122.873 4.07209 124.463 2.40212 126.972 2.40212C128.323 2.37121 129.632 2.88897 130.612 3.84244C130.642 3.87136 130.665 3.90622 130.682 3.94488C130.698 3.98354 130.706 4.02519 130.706 4.06729C130.706 4.10938 130.698 4.15103 130.682 4.18969C130.665 4.22835 130.642 4.26321 130.612 4.29213L129.493 5.45957C129.466 5.48793 129.434 5.51048 129.398 5.52589C129.363 5.54129 129.325 5.54923 129.286 5.54923C129.248 5.54923 129.21 5.54129 129.174 5.52589C129.139 5.51048 129.107 5.48793 129.08 5.45957C128.553 4.95351 127.86 4.66678 127.138 4.65533C126.134 4.65533 125.392 5.2674 125.392 5.97363C125.392 8.25663 131.324 6.93929 131.324 11.3323C131.321 13.5586 129.72 15.243 126.889 15.243C126.102 15.2513 125.323 15.0975 124.596 14.7908C123.869 14.4841 123.209 14.0307 122.657 13.4578C122.627 13.4288 122.603 13.394 122.587 13.3553C122.571 13.3167 122.562 13.275 122.562 13.2329C122.562 13.1908 122.571 13.1492 122.587 13.1105C122.603 13.0718 122.627 13.037 122.657 13.0081L123.739 11.8704C123.766 11.8407 123.799 11.8169 123.835 11.8007C123.872 11.7845 123.911 11.7761 123.95 11.7761C123.99 11.7761 124.029 11.7845 124.066 11.8007C124.102 11.8169 124.134 11.8407 124.161 11.8704C124.843 12.5622 125.76 12.955 126.72 12.9658C127.974 12.9658 128.8 12.2624 128.8 11.3813C128.8 9.09738 122.872 10.4157 122.872 6.02167L122.873 6.00341ZM142.08 2.98344V7.5994H137.059V2.98344C137.06 2.94382 137.053 2.90448 137.038 2.86768C137.024 2.83088 137.003 2.79734 136.976 2.76896C136.949 2.74059 136.917 2.71794 136.881 2.70231C136.845 2.68669 136.807 2.67839 136.769 2.67788H134.864C134.826 2.67839 134.787 2.68669 134.752 2.70231C134.716 2.71794 134.684 2.74059 134.657 2.76896C134.63 2.79734 134.609 2.83088 134.594 2.86768C134.58 2.90448 134.573 2.94382 134.573 2.98344V14.6454C134.573 14.8145 134.705 14.9519 134.864 14.9519H136.769C136.928 14.9519 137.059 14.8145 137.059 14.6454V9.95639H142.076V14.6454C142.076 14.8145 142.208 14.9519 142.367 14.9519H144.272C144.432 14.9519 144.562 14.8145 144.562 14.6454V2.98344C144.563 2.94382 144.556 2.90448 144.541 2.86768C144.527 2.83088 144.506 2.79734 144.479 2.76896C144.452 2.74059 144.42 2.71794 144.384 2.70231C144.348 2.68669 144.31 2.67839 144.272 2.67788H142.367C142.29 2.6799 142.216 2.7131 142.162 2.7703C142.109 2.82749 142.079 2.90407 142.08 2.98344ZM28.8051 4.23447C27.4843 1.72663 24.8998 0.16524 22.0893 0.174849H0.824348C0.68074 0.175446 0.540479 0.219313 0.42104 0.300984C0.301602 0.382655 0.208267 0.498519 0.152666 0.634139C0.0978777 0.76889 0.0836084 0.917325 0.111686 1.06043C0.139763 1.20354 0.208909 1.33481 0.310268 1.43742L4.94262 6.14562C5.35163 6.56263 5.90887 6.79612 6.48861 6.79612H21.4795C22.548 6.78459 23.4214 7.65129 23.4326 8.73033C23.4439 9.80937 22.5874 10.6934 21.5189 10.7039H11.1838C11.0401 10.704 10.8996 10.7474 10.7798 10.8287C10.66 10.9101 10.5663 11.0257 10.5103 11.1613C10.4549 11.2962 10.4403 11.445 10.4682 11.5885C10.4961 11.732 10.5653 11.8636 10.6669 11.9665L15.3021 16.6786C15.7137 17.0954 16.2693 17.3288 16.8481 17.3281H21.5226C27.6044 17.3281 32.203 10.7558 28.8051 4.23159" fill="#ADAB9A"/>
</svg>
